<svg width="23" height="23" viewBox="0 0 23 23" fill="none" xmlns="http://www.w3.org/2000/svg">
<path d="M11.63 14.41V10.51H22.25C22.35 12.19 22.18 13.76 21.74 15.22C21.3 16.68 20.62 17.97 19.7 19.09C18.78 20.21 17.63 21.09 16.25 21.73C14.87 22.35 13.29 22.66 11.51 22.66C9.83 22.66 8.29 22.4 6.89 21.88C5.49 21.34 4.28 20.58 3.26 19.6C2.24 18.6 1.44 17.42 0.86 16.06C0.3 14.68 0.0200001 13.16 0.0200001 11.5C0.0200001 9.84 0.31 8.34 0.89 7C1.47 5.64 2.29 4.48 3.35 3.52C4.41 2.56 5.65 1.82 7.07 1.3C8.49 0.779999 10.03 0.519999 11.69 0.519999C13.17 0.519999 14.5 0.729999 15.68 1.15C16.86 1.57 17.9 2.16 18.8 2.92C19.72 3.66 20.51 4.52 21.17 5.5L16.67 7.84C16.19 7 15.54 6.31 14.72 5.77C13.92 5.21 12.91 4.93 11.69 4.93C10.53 4.93 9.46 5.19 8.48 5.71C7.52 6.23 6.75 6.98 6.17 7.96C5.61 8.92 5.33 10.1 5.33 11.5C5.33 12.88 5.6 14.08 6.14 15.1C6.7 16.1 7.45 16.88 8.39 17.44C9.35 17.98 10.45 18.25 11.69 18.25C12.45 18.25 13.14 18.16 13.76 17.98C14.38 17.78 14.91 17.51 15.35 17.17C15.79 16.81 16.16 16.4 16.46 15.94C16.78 15.46 17.03 14.95 17.21 14.41H11.63Z" fill="#444B58"/>
</svg>
